<svg id="visual" viewBox="0 0 960 540" width="960" height="540" xmlns="http://www.w3.org/2000/svg" xmlns:xlink="http://www.w3.org/1999/xlink" version="1.1"><rect x="0" y="0" width="960" height="540" fill="#ffffff"></rect><path d="M0 67L32 79C64 91 128 115 192 116.5C256 118 320 97 384 87C448 77 512 78 576 88.2C640 98.3 704 117.7 768 113.5C832 109.3 896 81.7 928 67.8L960 54L960 0L928 0C896 0 832 0 768 0C704 0 640 0 576 0C512 0 448 0 384 0C320 0 256 0 192 0C128 0 64 0 32 0L0 0Z" fill="#428dff" stroke-linecap="round" stroke-linejoin="miter"></path></svg>